<mxfile host="app.diagrams.net" agent="Mozilla/5.0 (Windows NT 10.0; Win64; x64) AppleWebKit/537.36 (KHTML, like Gecko) Chrome/133.0.0.0 Safari/537.36 Edg/133.0.0.0" version="26.0.15">
  <diagram name="第 1 页" id="x1g4QfThPSaxT9z_EjW_">
    <mxGraphModel dx="1386" dy="755" grid="1" gridSize="10" guides="1" tooltips="1" connect="1" arrows="1" fold="1" page="1" pageScale="1" pageWidth="827" pageHeight="1169" math="0" shadow="0">
      <root>
        <mxCell id="0" />
        <mxCell id="1" parent="0" />
        <mxCell id="nWANFf-JCWplgzI0E-6u-1" value="BD Team" style="shape=umlLifeline;perimeter=lifelinePerimeter;whiteSpace=wrap;container=1;dropTarget=0;collapsible=0;recursiveResize=0;outlineConnect=0;portConstraint=eastwest;newEdgeStyle={&quot;edgeStyle&quot;:&quot;elbowEdgeStyle&quot;,&quot;elbow&quot;:&quot;vertical&quot;,&quot;curved&quot;:0,&quot;rounded&quot;:0};size=30;fontSize=14;spacing=1;" vertex="1" parent="1">
          <mxGeometry x="20" y="20" width="150" height="600" as="geometry" />
        </mxCell>
        <mxCell id="nWANFf-JCWplgzI0E-6u-2" value="RD Team" style="shape=umlLifeline;perimeter=lifelinePerimeter;whiteSpace=wrap;container=1;dropTarget=0;collapsible=0;recursiveResize=0;outlineConnect=0;portConstraint=eastwest;newEdgeStyle={&quot;edgeStyle&quot;:&quot;elbowEdgeStyle&quot;,&quot;elbow&quot;:&quot;vertical&quot;,&quot;curved&quot;:0,&quot;rounded&quot;:0};size=30;fontSize=14;spacing=1;" vertex="1" parent="1">
          <mxGeometry x="401" y="20" width="150" height="600" as="geometry" />
        </mxCell>
        <mxCell id="nWANFf-JCWplgzI0E-6u-3" value="QA Team" style="shape=umlLifeline;perimeter=lifelinePerimeter;whiteSpace=wrap;container=1;dropTarget=0;collapsible=0;recursiveResize=0;outlineConnect=0;portConstraint=eastwest;newEdgeStyle={&quot;edgeStyle&quot;:&quot;elbowEdgeStyle&quot;,&quot;elbow&quot;:&quot;vertical&quot;,&quot;curved&quot;:0,&quot;rounded&quot;:0};size=30;fontSize=14;spacing=1;" vertex="1" parent="1">
          <mxGeometry x="730" y="20" width="150" height="600" as="geometry" />
        </mxCell>
        <mxCell id="nWANFf-JCWplgzI0E-6u-4" value="alt" style="shape=umlFrame;dashed=1;pointerEvents=0;dropTarget=0;strokeColor=#B3B3B3;height=20;width=30;fontSize=14;spacing=1;" vertex="1" parent="1">
          <mxGeometry x="84" y="149" width="946" height="471" as="geometry" />
        </mxCell>
        <mxCell id="nWANFf-JCWplgzI0E-6u-5" value="[CP Feed data is checked passed]" style="text;strokeColor=none;fillColor=none;align=center;verticalAlign=middle;whiteSpace=wrap;fontSize=14;spacing=1;fontStyle=1" vertex="1" parent="nWANFf-JCWplgzI0E-6u-4">
          <mxGeometry x="48.51282051282051" width="897.4871794871794" height="6.35097473787961" as="geometry" />
        </mxCell>
        <mxCell id="nWANFf-JCWplgzI0E-6u-6" value="[CP Feed data is checked not passed]" style="shape=line;dashed=1;whiteSpace=wrap;verticalAlign=top;labelPosition=center;verticalLabelPosition=middle;align=center;strokeColor=#B3B3B3;fontSize=14;spacing=1;fontStyle=1" vertex="1" parent="nWANFf-JCWplgzI0E-6u-4">
          <mxGeometry y="397.6467065868263" width="946" height="4.427964071856287" as="geometry" />
        </mxCell>
        <mxCell id="nWANFf-JCWplgzI0E-6u-7" value="1.Send email with the CP feed url" style="verticalAlign=bottom;edgeStyle=elbowEdgeStyle;elbow=vertical;curved=0;rounded=0;endArrow=block;fontSize=14;spacing=1;" edge="1" parent="1" target="nWANFf-JCWplgzI0E-6u-2">
          <mxGeometry relative="1" as="geometry">
            <Array as="points">
              <mxPoint x="226" y="79" />
            </Array>
            <mxPoint x="94.5" y="79" as="sourcePoint" />
            <mxPoint x="338.5" y="79" as="targetPoint" />
          </mxGeometry>
        </mxCell>
        <mxCell id="nWANFf-JCWplgzI0E-6u-8" value="2.Check if the fields returned by the feed URL are complete" style="curved=1;endArrow=block;rounded=0;fontSize=14;spacing=1;" edge="1" parent="1">
          <mxGeometry relative="1" as="geometry">
            <Array as="points">
              <mxPoint x="527" y="99" />
              <mxPoint x="527" y="129" />
            </Array>
            <mxPoint x="475.5" y="99" as="sourcePoint" />
            <mxPoint x="475.5" y="129" as="targetPoint" />
          </mxGeometry>
        </mxCell>
        <mxCell id="nWANFf-JCWplgzI0E-6u-9" value="3.Make a plan and carry out CP data integration development" style="curved=1;endArrow=block;rounded=0;fontSize=14;spacing=1;" edge="1" parent="1">
          <mxGeometry relative="1" as="geometry">
            <Array as="points">
              <mxPoint x="527" y="181" />
              <mxPoint x="527" y="211" />
            </Array>
            <mxPoint x="475.5" y="181" as="sourcePoint" />
            <mxPoint x="475.5" y="211" as="targetPoint" />
          </mxGeometry>
        </mxCell>
        <mxCell id="nWANFf-JCWplgzI0E-6u-10" value="4. Use a device in the DEV environment to test" style="curved=1;endArrow=block;rounded=0;fontSize=14;spacing=1;" edge="1" parent="1">
          <mxGeometry relative="1" as="geometry">
            <Array as="points">
              <mxPoint x="527" y="232" />
              <mxPoint x="527" y="262" />
            </Array>
            <mxPoint x="475.5" y="232" as="sourcePoint" />
            <mxPoint x="475.5" y="262" as="targetPoint" />
          </mxGeometry>
        </mxCell>
        <mxCell id="nWANFf-JCWplgzI0E-6u-11" value="5.After the DEV test is passed, initiates an ACC deployment application " style="curved=1;endArrow=block;rounded=0;fontSize=14;spacing=1;" edge="1" parent="1">
          <mxGeometry relative="1" as="geometry">
            <Array as="points">
              <mxPoint x="527" y="281" />
              <mxPoint x="527" y="311" />
            </Array>
            <mxPoint x="475.5" y="281" as="sourcePoint" />
            <mxPoint x="475.5" y="311" as="targetPoint" />
          </mxGeometry>
        </mxCell>
        <mxCell id="nWANFf-JCWplgzI0E-6u-12" value="6.After the ACC is deployed, start data integration task on the ACC" style="curved=1;endArrow=block;rounded=0;fontSize=14;spacing=1;" edge="1" parent="1">
          <mxGeometry relative="1" as="geometry">
            <Array as="points">
              <mxPoint x="527" y="331" />
              <mxPoint x="527" y="361" />
            </Array>
            <mxPoint x="475.5" y="331" as="sourcePoint" />
            <mxPoint x="475.5" y="361" as="targetPoint" />
          </mxGeometry>
        </mxCell>
        <mxCell id="nWANFf-JCWplgzI0E-6u-13" value="7. Use a device in the ACC environment for testing" style="curved=1;endArrow=block;rounded=0;fontSize=14;spacing=1;" edge="1" parent="1">
          <mxGeometry relative="1" as="geometry">
            <Array as="points">
              <mxPoint x="856" y="369" />
              <mxPoint x="856" y="399" />
            </Array>
            <mxPoint x="804.5" y="369" as="sourcePoint" />
            <mxPoint x="804.5" y="399" as="targetPoint" />
          </mxGeometry>
        </mxCell>
        <mxCell id="nWANFf-JCWplgzI0E-6u-14" value="8.After passing the ACC test, a PROD deployment application is initiated" style="curved=1;endArrow=block;rounded=0;fontSize=14;spacing=1;" edge="1" parent="1">
          <mxGeometry relative="1" as="geometry">
            <Array as="points">
              <mxPoint x="527" y="407" />
              <mxPoint x="527" y="437" />
            </Array>
            <mxPoint x="475.5" y="407" as="sourcePoint" />
            <mxPoint x="475.5" y="437" as="targetPoint" />
          </mxGeometry>
        </mxCell>
        <mxCell id="nWANFf-JCWplgzI0E-6u-15" value="9.After the PROD is deployed, start data integration task on the PROD" style="curved=1;endArrow=block;rounded=0;fontSize=14;spacing=1;" edge="1" parent="1">
          <mxGeometry relative="1" as="geometry">
            <Array as="points">
              <mxPoint x="527" y="455" />
              <mxPoint x="527" y="485" />
            </Array>
            <mxPoint x="475.5" y="455" as="sourcePoint" />
            <mxPoint x="475.5" y="485" as="targetPoint" />
          </mxGeometry>
        </mxCell>
        <mxCell id="nWANFf-JCWplgzI0E-6u-16" value="10. Use a device in the PROD environment for testing" style="curved=1;endArrow=block;rounded=0;fontSize=14;spacing=1;" edge="1" parent="1">
          <mxGeometry relative="1" as="geometry">
            <Array as="points">
              <mxPoint x="856" y="494" />
              <mxPoint x="856" y="524" />
            </Array>
            <mxPoint x="804.5" y="494" as="sourcePoint" />
            <mxPoint x="804.5" y="524" as="targetPoint" />
          </mxGeometry>
        </mxCell>
        <mxCell id="nWANFf-JCWplgzI0E-6u-17" value="11.Send email to give feedback to notify data is ready" style="verticalAlign=bottom;edgeStyle=elbowEdgeStyle;elbow=vertical;curved=0;rounded=0;endArrow=block;fontSize=14;spacing=1;" edge="1" parent="1" source="nWANFf-JCWplgzI0E-6u-2">
          <mxGeometry relative="1" as="geometry">
            <Array as="points">
              <mxPoint x="229" y="539" />
            </Array>
            <mxPoint x="338.5" y="539" as="sourcePoint" />
            <mxPoint x="94.5" y="539" as="targetPoint" />
          </mxGeometry>
        </mxCell>
        <mxCell id="nWANFf-JCWplgzI0E-6u-18" value="12 Send email to inform CP feed metadata is not complete" style="verticalAlign=bottom;edgeStyle=elbowEdgeStyle;elbow=vertical;curved=0;rounded=0;endArrow=block;fontSize=14;spacing=1;" edge="1" parent="1" source="nWANFf-JCWplgzI0E-6u-2">
          <mxGeometry relative="1" as="geometry">
            <Array as="points">
              <mxPoint x="229" y="606" />
            </Array>
            <mxPoint x="338.5" y="606" as="sourcePoint" />
            <mxPoint x="94.5" y="606" as="targetPoint" />
          </mxGeometry>
        </mxCell>
      </root>
    </mxGraphModel>
  </diagram>
</mxfile>
